<svg version="1.1" xmlns="http://www.w3.org/2000/svg" xmlns:xlink="http://www.w3.org/1999/xlink" width="53" height="18"><g transform="translate(-213,-171)"><g data-paper-data="{&quot;isPaintingLayer&quot;:true}" fill="none" fill-rule="nonzero" stroke="#000000" stroke-width="2" stroke-linecap="butt" stroke-linejoin="miter" stroke-miterlimit="10" stroke-dasharray="" stroke-dashoffset="0" font-family="none" font-weight="none" font-size="none" text-anchor="none" style="mix-blend-mode: normal"><path d="" data-paper-data="{&quot;origRot&quot;:0}" fill="#9966ff"/><path d="" data-paper-data="{&quot;origRot&quot;:0}" fill="#9966ff"/><path d="M238.03781,179.99034c0.06103,-0.81374 0.38816,-1.57482 0.93625,-2.26396c-0.01006,1.84739 0.02151,3.69768 0.26676,5.51503c-0.84947,-1.01368 -1.2878,-2.12042 -1.203,-3.25107z" data-paper-data="{&quot;origRot&quot;:0,&quot;origPos&quot;:null}" fill="#9966ff"/><path d="" fill="#9966ff"/><path d="" fill="#9966ff"/><path d="M239,181c0,3.86599 -5.59644,7 -12.5,7c-6.90356,0 -12.5,-3.13401 -12.5,-7c0,-3.86599 5.59644,-7 12.5,-7c6.90356,0 12.5,3.13401 12.5,7z" data-paper-data="{&quot;origPos&quot;:null}" fill="#ffdf66"/><path d="M265,180c0,4.41828 -5.8203,8 -13,8c-7.1797,0 -13,-3.58172 -13,-8c0,-4.41828 5.8203,-8 13,-8c7.1797,0 13,3.58172 13,8z" data-paper-data="{&quot;origPos&quot;:null}" fill="#ffdf66"/></g></g></svg>